<svg id="visual" viewBox="0 0 960 540" width="960" height="540" xmlns="http://www.w3.org/2000/svg" xmlns:xlink="http://www.w3.org/1999/xlink" version="1.1"><rect width="960" height="540" fill="#0a0d25"></rect><g><g transform="translate(274 484)"><path d="M0 -55.9L43.7 -34.9L54.5 12.4L24.3 50.4L-24.3 50.4L-54.5 12.4L-43.7 -34.9Z" fill="#9fc9dd"></path></g><g transform="translate(3 281)"><path d="M0 -41L32.1 -25.6L40 9.1L17.8 36.9L-17.8 36.9L-40 9.1L-32.1 -25.6Z" fill="#9fc9dd"></path></g><g transform="translate(326 12)"><path d="M0 -42L32.8 -26.2L40.9 9.3L18.2 37.8L-18.2 37.8L-40.9 9.3L-32.8 -26.2Z" fill="#9fc9dd"></path></g><g transform="translate(815 458)"><path d="M0 -54L42.2 -33.7L52.6 12L23.4 48.7L-23.4 48.7L-52.6 12L-42.2 -33.7Z" fill="#9fc9dd"></path></g><g transform="translate(37 15)"><path d="M0 -48L37.5 -29.9L46.8 10.7L20.8 43.2L-20.8 43.2L-46.8 10.7L-37.5 -29.9Z" fill="#9fc9dd"></path></g><g transform="translate(828 214)"><path d="M0 -20L15.6 -12.5L19.5 4.5L8.7 18L-8.7 18L-19.5 4.5L-15.6 -12.5Z" fill="#9fc9dd"></path></g><g transform="translate(466 395)"><path d="M0 -21L16.4 -13.1L20.5 4.7L9.1 18.9L-9.1 18.9L-20.5 4.7L-16.4 -13.1Z" fill="#9fc9dd"></path></g><g transform="translate(21 436)"><path d="M0 -53L41.4 -33L51.7 11.8L23 47.8L-23 47.8L-51.7 11.8L-41.4 -33Z" fill="#9fc9dd"></path></g></g></svg>